<?xml version="1.0" ?><svg height="32px" version="1.1" viewBox="0 0 32 32" width="32px" xmlns="http://www.w3.org/2000/svg" xmlns:xlink="http://www.w3.org/1999/xlink"><title/><desc/><defs/><g fill="none" fill-rule="evenodd" id="Page-1" stroke="none" stroke-width="1"><g id="number-123"><g id="Page-1" transform="translate(2.000000, 6.000000)"><path d="M5.6692,15.904 L5.6692,5.427 C3.7202,6.924 2.4072,7.672 1.7322,7.672 C1.4092,7.672 1.1232,7.544 0.8742,7.287 C0.6242,7.03 0.5002,6.732 0.5002,6.394 C0.5002,6.003 0.6232,5.715 0.8682,5.531 C1.1142,5.347 1.5472,5.109 2.1692,4.817 C3.0982,4.38 3.8402,3.919 4.3972,3.436 C4.9532,2.952 5.4462,2.411 5.8762,1.812 C6.3062,1.214 6.5862,0.845 6.7172,0.707 C6.8472,0.569 7.0932,0.5 7.4532,0.5 C7.8602,0.5 8.1862,0.657 8.4322,0.972 C8.6782,1.287 8.8002,1.72 8.8002,2.273 L8.8002,15.455 C8.8002,16.998 8.2752,17.769 7.2232,17.769 C6.7552,17.769 6.3792,17.612 6.0952,17.297 C5.8112,16.982 5.6692,16.518 5.6692,15.904" fill="#F42F42" id="Fill-1"/><path d="M5.6692,15.904 L5.6692,5.427 C3.7202,6.924 2.4072,7.672 1.7322,7.672 C1.4092,7.672 1.1232,7.544 0.8742,7.287 C0.6242,7.03 0.5002,6.732 0.5002,6.394 C0.5002,6.003 0.6232,5.715 0.8682,5.531 C1.1142,5.347 1.5472,5.109 2.1692,4.817 C3.0982,4.38 3.8402,3.919 4.3972,3.436 C4.9532,2.952 5.4462,2.411 5.8762,1.812 C6.3062,1.214 6.5862,0.845 6.7172,0.707 C6.8472,0.569 7.0932,0.5 7.4532,0.5 C7.8602,0.5 8.1862,0.657 8.4322,0.972 C8.6782,1.287 8.8002,1.72 8.8002,2.273 L8.8002,15.455 C8.8002,16.998 8.2752,17.769 7.2232,17.769 C6.7552,17.769 6.3792,17.612 6.0952,17.297 C5.8112,16.982 5.6692,16.518 5.6692,15.904 L5.6692,15.904 Z" id="Stroke-3" stroke="#330910"/><path d="M2.5622,5.655 C3.5642,5.183 4.3852,4.671 5.0042,4.134" id="Stroke-5" stroke="#FFFFFF" stroke-dasharray="1,2,6,2,3" stroke-linecap="round" stroke-linejoin="round" stroke-width="0.5"/><path d="M7.2234,16.8439 C6.8434,16.8439 6.5494,16.7229 6.3244,16.4739 C6.0944,16.2189 5.9774,15.8189 5.9774,15.2869 L5.9774,15.9039 C5.9774,16.4359 6.0944,16.8359 6.3244,17.0899 C6.5494,17.3399 6.8434,17.4609 7.2234,17.4609 C7.7684,17.4609 8.4924,17.2529 8.4924,15.4549 L8.4924,14.8379 C8.4924,16.6359 7.7684,16.8439 7.2234,16.8439" fill="#332E09" id="Fill-7" opacity="0.203766325"/><path d="M12.9279,16.9111 L17.8549,16.9111 C18.3459,16.9111 18.7199,17.0121 18.9779,17.2131 C19.2359,17.4141 19.3649,17.6881 19.3649,18.0341 C19.3649,18.3421 19.2629,18.6041 19.0579,18.8181 C18.8539,19.0311 18.5439,19.1381 18.1289,19.1381 L11.1819,19.1381 C10.7099,19.1381 10.3419,19.0081 10.0779,18.7471 C9.8129,18.4861 9.6809,18.1791 9.6809,17.8271 C9.6809,17.6001 9.7659,17.3001 9.9359,16.9251 C10.1059,16.5511 10.2919,16.2571 10.4929,16.0431 C11.3299,15.1741 12.0849,14.4301 12.7579,13.8111 C13.4309,13.1911 13.9129,12.7831 14.2019,12.5881 C14.7179,12.2231 15.1479,11.8571 15.4909,11.4891 C15.8329,11.1211 16.0949,10.7431 16.2739,10.3561 C16.4529,9.9691 16.5429,9.5901 16.5429,9.2191 C16.5429,8.8161 16.4469,8.4561 16.2549,8.1381 C16.0629,7.8201 15.8019,7.5731 15.4719,7.3971 C15.1409,7.2211 14.7809,7.1331 14.3909,7.1331 C13.5669,7.1331 12.9189,7.4951 12.4469,8.2181 C12.3839,8.3131 12.2779,8.5711 12.1299,8.9921 C11.9829,9.4141 11.8159,9.7381 11.6299,9.9641 C11.4449,10.1911 11.1719,10.3041 10.8139,10.3041 C10.4989,10.3041 10.2379,10.2001 10.0299,9.9931 C9.8229,9.7851 9.7189,9.5021 9.7189,9.1431 C9.7189,8.7091 9.8169,8.2561 10.0119,7.7841 C10.2069,7.3121 10.4979,6.8841 10.8849,6.5011 C11.2719,6.1171 11.7619,5.8071 12.3569,5.5711 C12.9519,5.3351 13.6479,5.2171 14.4479,5.2171 C15.4099,5.2171 16.2309,5.3681 16.9109,5.6701 C17.3509,5.8711 17.7379,6.1481 18.0719,6.5011 C18.4049,6.8531 18.6649,7.2601 18.8509,7.7231 C19.0359,8.1851 19.1289,8.6651 19.1289,9.1621 C19.1289,9.9421 18.9359,10.6521 18.5489,11.2901 C18.1619,11.9291 17.7669,12.4291 17.3639,12.7911 C16.9609,13.1531 16.2859,13.7211 15.3389,14.4951 C14.3929,15.2691 13.7429,15.8701 13.3899,16.2981 C13.2389,16.4671 13.0849,16.6721 12.9279,16.9111" fill="#2FBBF4" id="Fill-9"/><path d="M12.9279,16.9111 L17.8549,16.9111 C18.3459,16.9111 18.7199,17.0121 18.9779,17.2131 C19.2359,17.4141 19.3649,17.6881 19.3649,18.0341 C19.3649,18.3421 19.2629,18.6041 19.0579,18.8181 C18.8539,19.0311 18.5439,19.1381 18.1289,19.1381 L11.1819,19.1381 C10.7099,19.1381 10.3419,19.0081 10.0779,18.7471 C9.8129,18.4861 9.6809,18.1791 9.6809,17.8271 C9.6809,17.6001 9.7659,17.3001 9.9359,16.9251 C10.1059,16.5511 10.2919,16.2571 10.4929,16.0431 C11.3299,15.1741 12.0849,14.4301 12.7579,13.8111 C13.4309,13.1911 13.9129,12.7831 14.2019,12.5881 C14.7179,12.2231 15.1479,11.8571 15.4909,11.4891 C15.8329,11.1211 16.0949,10.7431 16.2739,10.3561 C16.4529,9.9691 16.5429,9.5901 16.5429,9.2191 C16.5429,8.8161 16.4469,8.4561 16.2549,8.1381 C16.0629,7.8201 15.8019,7.5731 15.4719,7.3971 C15.1409,7.2211 14.7809,7.1331 14.3909,7.1331 C13.5669,7.1331 12.9189,7.4951 12.4469,8.2181 C12.3839,8.3131 12.2779,8.5711 12.1299,8.9921 C11.9829,9.4141 11.8159,9.7381 11.6299,9.9641 C11.4449,10.1911 11.1719,10.3041 10.8139,10.3041 C10.4989,10.3041 10.2379,10.2001 10.0299,9.9931 C9.8229,9.7851 9.7189,9.5021 9.7189,9.1431 C9.7189,8.7091 9.8169,8.2561 10.0119,7.7841 C10.2069,7.3121 10.4979,6.8841 10.8849,6.5011 C11.2719,6.1171 11.7619,5.8071 12.3569,5.5711 C12.9519,5.3351 13.6479,5.2171 14.4479,5.2171 C15.4099,5.2171 16.2309,5.3681 16.9109,5.6701 C17.3509,5.8711 17.7379,6.1481 18.0719,6.5011 C18.4049,6.8531 18.6649,7.2601 18.8509,7.7231 C19.0359,8.1851 19.1289,8.6651 19.1289,9.1621 C19.1289,9.9421 18.9359,10.6521 18.5489,11.2901 C18.1619,11.9291 17.7669,12.4291 17.3639,12.7911 C16.9609,13.1531 16.2859,13.7211 15.3389,14.4951 C14.3929,15.2691 13.7429,15.8701 13.3899,16.2981 C13.2389,16.4671 13.0849,16.6721 12.9279,16.9111 L12.9279,16.9111 Z" id="Stroke-11" stroke="#092933" stroke-linejoin="round"/><path d="M11.4098,7.0297 C11.7228,6.7197 12.1338,6.4617 12.6318,6.2647 C13.1358,6.0647 13.7468,5.9627 14.4478,5.9627" id="Stroke-13" stroke="#FFFFFF" stroke-dasharray="1,2,6,2,3" stroke-linecap="round" stroke-linejoin="round" stroke-width="0.5"/><path d="M19.0802,17.7892 C19.0432,17.9232 18.9792,18.0432 18.8782,18.1482 C18.7232,18.3112 18.4712,18.3932 18.1282,18.3932 L11.1822,18.3932 C10.7742,18.3932 10.4702,18.2882 10.2522,18.0732 C10.1032,17.9252 10.0102,17.7622 9.9642,17.5832 C9.9402,17.6872 9.9302,17.7702 9.9302,17.8272 C9.9302,18.1122 10.0352,18.3552 10.2522,18.5702 C10.4702,18.7852 10.7742,18.8902 11.1822,18.8902 L18.1282,18.8902 C18.4712,18.8902 18.7232,18.8082 18.8782,18.6462 C19.0382,18.4782 19.1162,18.2782 19.1162,18.0342 C19.1162,17.9452 19.1012,17.8652 19.0802,17.7892" fill="#332E09" id="Fill-15" opacity="0.203766325"/><path d="M23.7979,13.5409 C23.8889,13.5409 24.3769,13.4759 24.8829,13.3959 L25.2399,13.1059 C25.5979,12.8159 25.7759,12.3989 25.7759,11.8569 C25.7759,11.4429 25.6339,11.0869 25.3489,10.7889 C25.0649,10.4909 24.6799,10.3419 24.1969,10.3419 C23.8689,10.3419 23.5989,10.3869 23.3869,10.4789 C23.1749,10.5699 23.0069,10.6909 22.8829,10.8409 C22.7599,10.9919 22.6429,11.1849 22.5329,11.4219 L22.4229,11.6579 C22.3169,11.8959 22.1629,12.1809 22.0799,12.2919 L21.9409,12.3559 C21.8009,12.4209 21.6399,12.4529 21.4569,12.4529 C21.2419,12.4529 21.0449,12.3659 20.8649,12.1909 C20.6849,12.0169 20.5949,11.7839 20.5949,11.4939 C20.5949,11.2149 20.6789,10.9209 20.8489,10.6119 C21.0179,10.3029 21.2649,10.0089 21.5899,9.7289 C21.9149,9.4499 22.3189,9.2259 22.8029,9.0559 C23.2859,8.8869 23.8259,8.8029 24.4229,8.8029 C24.9439,8.8029 25.4189,8.8739 25.8489,9.0159 C26.2789,9.1589 26.6519,9.3639 26.9689,9.6329 C27.2859,9.9009 27.5249,10.2129 27.6859,10.5669 C27.8469,10.9219 27.9279,11.3029 27.9279,11.7119 C27.9279,12.2489 27.8109,12.7099 27.5769,13.0939 L27.3439,13.4779 C26.9199,13.8849 26.9219,14.4349 27.3459,14.7009 L27.6339,14.9919 C27.9209,15.2819 28.1369,15.6029 28.2829,15.9549 C28.4279,16.3059 28.4999,16.6859 28.4999,17.0949 C28.4999,17.5839 28.4019,18.0559 28.2059,18.5129 C28.0099,18.9699 27.7209,19.3769 27.3399,19.7339 C26.9579,20.0909 26.5059,20.3709 25.9819,20.5719 C25.4579,20.7729 24.8789,20.8739 24.2449,20.8739 C23.6009,20.8739 23.0229,20.7589 22.5129,20.5279 C22.0019,20.2969 21.5819,20.0079 21.2519,19.6609 C20.9209,19.3149 20.6709,18.9559 20.5019,18.5859 C20.3329,18.2149 20.2479,17.9089 20.2479,17.6669 C20.2479,17.3549 20.3489,17.1039 20.5499,16.9129 C20.7519,16.7229 21.0029,16.6269 21.3039,16.6269 C21.4539,16.6269 21.5989,16.6719 21.7389,16.7599 L21.8789,16.8489 C21.9529,16.9749 22.2739,17.6639 22.5919,18.3799 L22.9119,18.7429 C23.2309,19.1049 23.6809,19.2869 24.2609,19.2869 C24.5939,19.2869 24.9149,19.2049 25.2239,19.0409 C25.5329,18.8769 25.7879,18.6339 25.9899,18.3119 C26.1909,17.9889 26.2919,17.6159 26.2919,17.1909 C26.2919,16.5629 26.1199,16.0699 25.7759,15.7129 C25.4329,15.3549 24.9539,15.1769 24.3419,15.1769 C24.2339,15.1769 24.0679,15.1879 23.8419,15.2089 C23.6169,15.2309 23.4719,15.2409 23.4069,15.2409 C23.1119,15.2409 22.8829,15.1669 22.7219,15.0199 C22.5609,14.8719 22.4799,14.6669 22.4799,14.4029 C22.4799,14.1449 22.5769,13.9369 22.7709,13.7789 L22.9639,13.6199 C23.3319,13.5769 23.7069,13.5409 23.7979,13.5409" fill="#2FF489" id="Fill-17"/><path d="M23.7979,13.5409 C23.8889,13.5409 24.3769,13.4759 24.8829,13.3959 L25.2399,13.1059 C25.5979,12.8159 25.7759,12.3989 25.7759,11.8569 C25.7759,11.4429 25.6339,11.0869 25.3489,10.7889 C25.0649,10.4909 24.6799,10.3419 24.1969,10.3419 C23.8689,10.3419 23.5989,10.3869 23.3869,10.4789 C23.1749,10.5699 23.0069,10.6909 22.8829,10.8409 C22.7599,10.9919 22.6429,11.1849 22.5329,11.4219 L22.4229,11.6579 C22.3169,11.8959 22.1629,12.1809 22.0799,12.2919 L21.9409,12.3559 C21.8009,12.4209 21.6399,12.4529 21.4569,12.4529 C21.2419,12.4529 21.0449,12.3659 20.8649,12.1909 C20.6849,12.0169 20.5949,11.7839 20.5949,11.4939 C20.5949,11.2149 20.6789,10.9209 20.8489,10.6119 C21.0179,10.3029 21.2649,10.0089 21.5899,9.7289 C21.9149,9.4499 22.3189,9.2259 22.8029,9.0559 C23.2859,8.8869 23.8259,8.8029 24.4229,8.8029 C24.9439,8.8029 25.4189,8.8739 25.8489,9.0159 C26.2789,9.1589 26.6519,9.3639 26.9689,9.6329 C27.2859,9.9009 27.5249,10.2129 27.6859,10.5669 C27.8469,10.9219 27.9279,11.3029 27.9279,11.7119 C27.9279,12.2489 27.8109,12.7099 27.5769,13.0939 L27.3439,13.4779 C26.9199,13.8849 26.9219,14.4349 27.3459,14.7009 L27.6339,14.9919 C27.9209,15.2819 28.1369,15.6029 28.2829,15.9549 C28.4279,16.3059 28.4999,16.6859 28.4999,17.0949 C28.4999,17.5839 28.4019,18.0559 28.2059,18.5129 C28.0099,18.9699 27.7209,19.3769 27.3399,19.7339 C26.9579,20.0909 26.5059,20.3709 25.9819,20.5719 C25.4579,20.7729 24.8789,20.8739 24.2449,20.8739 C23.6009,20.8739 23.0229,20.7589 22.5129,20.5279 C22.0019,20.2969 21.5819,20.0079 21.2519,19.6609 C20.9209,19.3149 20.6709,18.9559 20.5019,18.5859 C20.3329,18.2149 20.2479,17.9089 20.2479,17.6669 C20.2479,17.3549 20.3489,17.1039 20.5499,16.9129 C20.7519,16.7229 21.0029,16.6269 21.3039,16.6269 C21.4539,16.6269 21.5989,16.6719 21.7389,16.7599 L21.8789,16.8489 C21.9529,16.9749 22.2739,17.6639 22.5919,18.3799 L22.9119,18.7429 C23.2309,19.1049 23.6809,19.2869 24.2609,19.2869 C24.5939,19.2869 24.9149,19.2049 25.2239,19.0409 C25.5329,18.8769 25.7879,18.6339 25.9899,18.3119 C26.1909,17.9889 26.2919,17.6159 26.2919,17.1909 C26.2919,16.5629 26.1199,16.0699 25.7759,15.7129 C25.4329,15.3549 24.9539,15.1769 24.3419,15.1769 C24.2339,15.1769 24.0679,15.1879 23.8419,15.2089 C23.6169,15.2309 23.4719,15.2409 23.4069,15.2409 C23.1119,15.2409 22.8829,15.1669 22.7219,15.0199 C22.5609,14.8719 22.4799,14.6669 22.4799,14.4029 C22.4799,14.1449 22.5769,13.9369 22.7709,13.7789 L22.9639,13.6199 C23.3319,13.5769 23.7069,13.5409 23.7979,13.5409 L23.7979,13.5409 Z" id="Stroke-19" stroke="#09331B"/><path d="M22.0116,10.2197 C22.2736,9.9947 22.6116,9.8087 23.0166,9.6667 C23.4286,9.5227 23.9016,9.4497 24.4226,9.4497" id="Stroke-21" stroke="#FFFFFF" stroke-dasharray="1,2,6,2,3" stroke-linecap="round" stroke-linejoin="round" stroke-width="0.5"/><path d="M28.274,16.8665 C28.25,17.2535 28.164,17.6325 28.008,17.9965 C27.824,18.4235 27.55,18.8105 27.192,19.1455 C26.832,19.4825 26.399,19.7495 25.904,19.9395 C25.408,20.1305 24.85,20.2275 24.245,20.2275 C23.634,20.2275 23.081,20.1175 22.602,19.9005 C22.119,19.6815 21.717,19.4065 21.407,19.0815 C21.095,18.7535 20.856,18.4115 20.698,18.0645 C20.59,17.8295 20.522,17.6245 20.489,17.4505 C20.474,17.5185 20.464,17.5885 20.464,17.6665 C20.464,17.8765 20.543,18.1555 20.698,18.4955 C20.856,18.8435 21.095,19.1845 21.407,19.5125 C21.717,19.8375 22.119,20.1125 22.602,20.3315 C23.081,20.5485 23.634,20.6585 24.245,20.6585 C24.85,20.6585 25.408,20.5615 25.904,20.3705 C26.399,20.1805 26.832,19.9135 27.192,19.5765 C27.55,19.2415 27.824,18.8545 28.008,18.4275 C28.191,18.0005 28.284,17.5515 28.284,17.0945 C28.284,17.0175 28.28,16.9415 28.274,16.8665" fill="#332E09" id="Fill-23" opacity="0.203766325"/></g></g></g></svg>